<svg width="136" height="93" viewBox="0 0 136 93" fill="none" xmlns="http://www.w3.org/2000/svg">
<path d="M46.3661 27.9091C46.2638 27.0455 45.8491 26.375 45.1218 25.8977C44.3945 25.4205 43.5025 25.1818 42.4457 25.1818C41.6729 25.1818 40.9968 25.3068 40.4173 25.5568C39.8434 25.8068 39.3945 26.1506 39.0707 26.5881C38.7525 27.0256 38.5934 27.5227 38.5934 28.0795C38.5934 28.5455 38.7042 28.946 38.9258 29.2812C39.1531 29.6108 39.4428 29.8864 39.7951 30.108C40.1474 30.3239 40.5167 30.5028 40.9031 30.6449C41.2894 30.7812 41.6445 30.892 41.9684 30.9773L43.7411 31.4545C44.1957 31.5739 44.7013 31.7386 45.2582 31.9489C45.8207 32.1591 46.3576 32.446 46.869 32.8097C47.386 33.1676 47.8121 33.6278 48.1474 34.1903C48.4826 34.7528 48.6502 35.4432 48.6502 36.2614C48.6502 37.2045 48.4031 38.0568 47.9087 38.8182C47.4201 39.5795 46.7042 40.1847 45.761 40.6335C44.8235 41.0824 43.6843 41.3068 42.3434 41.3068C41.0934 41.3068 40.011 41.1051 39.0962 40.7017C38.1871 40.2983 37.4712 39.7358 36.9485 39.0142C36.4315 38.2926 36.1388 37.4545 36.0707 36.5H38.2525C38.3093 37.1591 38.5309 37.7045 38.9173 38.1364C39.3093 38.5625 39.8036 38.8807 40.4002 39.0909C41.0025 39.2955 41.6502 39.3977 42.3434 39.3977C43.1502 39.3977 43.8746 39.267 44.5167 39.0057C45.1587 38.7386 45.6673 38.3693 46.0423 37.8977C46.4173 37.4205 46.6048 36.8636 46.6048 36.2273C46.6048 35.6477 46.4428 35.1761 46.119 34.8125C45.7951 34.4489 45.369 34.1534 44.8406 33.9261C44.3121 33.6989 43.7411 33.5 43.1275 33.3295L40.9798 32.7159C39.6161 32.3239 38.5366 31.7642 37.7411 31.0369C36.9457 30.3097 36.5479 29.358 36.5479 28.1818C36.5479 27.2045 36.8121 26.3523 37.3406 25.625C37.8746 24.892 38.5906 24.3239 39.4883 23.9205C40.3917 23.5114 41.4002 23.3068 42.5138 23.3068C43.6388 23.3068 44.6388 23.5085 45.5138 23.9119C46.3888 24.3097 47.082 24.8551 47.5934 25.5483C48.1104 26.2415 48.3832 27.0284 48.4116 27.9091H46.3661ZM52.1254 41V23.5455H54.239V31.3182H63.5458V23.5455H65.6594V41H63.5458V33.1932H54.239V41H52.1254ZM84.6183 32.2727C84.6183 34.1136 84.2859 35.7045 83.6211 37.0455C82.9563 38.3864 82.0444 39.4205 80.8853 40.1477C79.7262 40.875 78.4023 41.2386 76.9137 41.2386C75.4251 41.2386 74.1012 40.875 72.9421 40.1477C71.783 39.4205 70.8711 38.3864 70.2063 37.0455C69.5415 35.7045 69.2092 34.1136 69.2092 32.2727C69.2092 30.4318 69.5415 28.8409 70.2063 27.5C70.8711 26.1591 71.783 25.125 72.9421 24.3977C74.1012 23.6705 75.4251 23.3068 76.9137 23.3068C78.4023 23.3068 79.7262 23.6705 80.8853 24.3977C82.0444 25.125 82.9563 26.1591 83.6211 27.5C84.2859 28.8409 84.6183 30.4318 84.6183 32.2727ZM82.5728 32.2727C82.5728 30.7614 82.32 29.4858 81.8143 28.446C81.3143 27.4062 80.6353 26.6193 79.7773 26.0852C78.9251 25.5511 77.9705 25.2841 76.9137 25.2841C75.8569 25.2841 74.8995 25.5511 74.0415 26.0852C73.1893 26.6193 72.5103 27.4062 72.0046 28.446C71.5046 29.4858 71.2546 30.7614 71.2546 32.2727C71.2546 33.7841 71.5046 35.0597 72.0046 36.0994C72.5103 37.1392 73.1893 37.9261 74.0415 38.4602C74.8995 38.9943 75.8569 39.2614 76.9137 39.2614C77.9705 39.2614 78.9251 38.9943 79.7773 38.4602C80.6353 37.9261 81.3143 37.1392 81.8143 36.0994C82.32 35.0597 82.5728 33.7841 82.5728 32.2727ZM88.1722 41V23.5455H94.07C95.4393 23.5455 96.5586 23.7926 97.4279 24.2869C98.3029 24.7756 98.9506 25.4375 99.3711 26.2727C99.7915 27.108 100.002 28.0398 100.002 29.0682C100.002 30.0966 99.7915 31.0312 99.3711 31.8722C98.9563 32.7131 98.3143 33.3835 97.445 33.8835C96.5756 34.3778 95.462 34.625 94.104 34.625H89.8768V32.75H94.0359C94.9734 32.75 95.7262 32.5881 96.2944 32.2642C96.8626 31.9403 97.2745 31.5028 97.5302 30.9517C97.7915 30.3949 97.9222 29.767 97.9222 29.0682C97.9222 28.3693 97.7915 27.7443 97.5302 27.1932C97.2745 26.642 96.8597 26.2102 96.2859 25.8977C95.712 25.5795 94.9506 25.4205 94.0018 25.4205H90.2859V41H88.1722ZM24.7738 70V52.5455H30.8761C32.092 52.5455 33.0948 52.7557 33.8846 53.1761C34.6744 53.5909 35.2624 54.1506 35.6488 54.8551C36.0352 55.554 36.2283 56.3295 36.2283 57.1818C36.2283 57.9318 36.0948 58.5511 35.8278 59.0398C35.5664 59.5284 35.2198 59.9148 34.788 60.1989C34.3619 60.483 33.8988 60.6932 33.3988 60.8295V61C33.9329 61.0341 34.4698 61.2216 35.0096 61.5625C35.5494 61.9034 36.0011 62.392 36.3647 63.0284C36.7283 63.6648 36.9102 64.4432 36.9102 65.3636C36.9102 66.2386 36.7113 67.0256 36.3136 67.7244C35.9158 68.4233 35.288 68.9773 34.43 69.3864C33.5721 69.7955 32.4556 70 31.0806 70H24.7738ZM26.8874 68.125H31.0806C32.4613 68.125 33.4414 67.858 34.021 67.3239C34.6062 66.7841 34.8988 66.1307 34.8988 65.3636C34.8988 64.7727 34.7482 64.2273 34.4471 63.7273C34.146 63.2216 33.717 62.8182 33.1602 62.517C32.6033 62.2102 31.9442 62.0568 31.1829 62.0568H26.8874V68.125ZM26.8874 60.2159H30.8079C31.4442 60.2159 32.0181 60.0909 32.5295 59.8409C33.0465 59.5909 33.4556 59.2386 33.7567 58.7841C34.0636 58.3295 34.217 57.7955 34.217 57.1818C34.217 56.4148 33.9499 55.7642 33.4158 55.2301C32.8817 54.6903 32.0352 54.4205 30.8761 54.4205H26.8874V60.2159ZM40.3832 70V52.5455H50.9173V54.4205H42.4968V60.3182H50.3718V62.1932H42.4968V68.125H51.0536V70H40.3832ZM54.7269 70V52.5455H56.8406V61.2045H57.0451L64.886 52.5455H67.6474L60.3178 60.4205L67.6474 70H65.0906L59.0224 61.8864L56.8406 64.3409V70H54.7269ZM70.3832 70V52.5455H80.9173V54.4205H72.4968V60.3182H80.3718V62.1932H72.4968V68.125H81.0536V70H70.3832ZM84.7269 70V52.5455H90.6246C91.9883 52.5455 93.1076 52.7784 93.9826 53.2443C94.8576 53.7045 95.5053 54.3381 95.9258 55.1449C96.3462 55.9517 96.5565 56.8693 96.5565 57.8977C96.5565 58.9261 96.3462 59.8381 95.9258 60.6335C95.5053 61.429 94.8604 62.054 93.9911 62.5085C93.1218 62.9574 92.011 63.1818 90.6587 63.1818H85.886V61.2727H90.5906C91.5224 61.2727 92.2724 61.1364 92.8406 60.8636C93.4144 60.5909 93.8292 60.2045 94.0849 59.7045C94.3462 59.1989 94.4769 58.5966 94.4769 57.8977C94.4769 57.1989 94.3462 56.5881 94.0849 56.0653C93.8235 55.5426 93.4059 55.1392 92.832 54.8551C92.2582 54.5653 91.4996 54.4205 90.5565 54.4205H86.8406V70H84.7269ZM92.9428 62.1591L97.2383 70H94.7837L90.5565 62.1591H92.9428ZM97.9925 52.5455H100.413L105.254 60.6932H105.458L110.299 52.5455H112.72L106.413 62.8068V70H104.299V62.8068L97.9925 52.5455Z" fill="#B96161"/>
</svg>
